<?xml version="1.0" encoding="UTF-8" standalone="no"?>
<!DOCTYPE svg PUBLIC "-//W3C//DTD SVG 1.1//EN"
 "http://www.w3.org/Graphics/SVG/1.1/DTD/svg11.dtd">
<!-- Generated by graphviz version 2.40.1 (20161225.0304)
 -->
<!-- Title: UNIVERSE Pages: 1 -->
<svg width="1779pt" height="332pt"
 viewBox="0.00 0.00 1779.35 332.00" xmlns="http://www.w3.org/2000/svg" xmlns:xlink="http://www.w3.org/1999/xlink">
<g id="graph0" class="graph" transform="scale(1 1) rotate(0) translate(4 328)">
<title>UNIVERSE</title>
<polygon fill="#ffffff" stroke="transparent" points="-4,4 -4,-328 1775.3516,-328 1775.3516,4 -4,4"/>
<!-- CLICKERY -->
<g id="node1" class="node">
<title>CLICKERY</title>
<ellipse fill="none" stroke="#000000" cx="518.9308" cy="-306" rx="59.1276" ry="18"/>
<text text-anchor="middle" x="518.9308" y="-301.8" font-family="Times,serif" font-size="14.00" fill="#000000">CLICKERY</text>
</g>
<!-- reset.py -->
<g id="node2" class="node">
<title>reset.py</title>
<ellipse fill="none" stroke="#000000" cx="163.9308" cy="-234" rx="41.171" ry="18"/>
<text text-anchor="middle" x="163.9308" y="-229.8" font-family="Times,serif" font-size="14.00" fill="#000000">reset.py</text>
</g>
<!-- CLICKERY&#45;&gt;reset.py -->
<g id="edge1" class="edge">
<title>CLICKERY&#45;&gt;reset.py</title>
<path fill="none" stroke="#000000" d="M464.0509,-299.1542C402.5149,-290.8173 300.058,-274.9481 213.9308,-252 210.8106,-251.1686 207.609,-250.2281 204.4065,-249.2239"/>
<polygon fill="#000000" stroke="#000000" points="205.4706,-245.8894 194.8772,-246.0653 203.2681,-252.5339 205.4706,-245.8894"/>
</g>
<!-- assets -->
<g id="node3" class="node">
<title>assets</title>
<ellipse fill="none" stroke="#000000" cx="256.9308" cy="-234" rx="33.6208" ry="18"/>
<text text-anchor="middle" x="256.9308" y="-229.8" font-family="Times,serif" font-size="14.00" fill="#000000">assets</text>
</g>
<!-- CLICKERY&#45;&gt;assets -->
<g id="edge2" class="edge">
<title>CLICKERY&#45;&gt;assets</title>
<path fill="none" stroke="#000000" d="M470.4814,-295.4014C426.825,-285.4673 361.069,-269.5487 304.9308,-252 301.168,-250.8237 297.2701,-249.5156 293.3967,-248.1565"/>
<polygon fill="#000000" stroke="#000000" points="294.5037,-244.8349 283.9095,-244.7189 292.119,-251.4162 294.5037,-244.8349"/>
</g>
<!-- structure -->
<g id="node4" class="node">
<title>structure</title>
<ellipse fill="none" stroke="#000000" cx="358.9308" cy="-234" rx="44.6395" ry="18"/>
<text text-anchor="middle" x="358.9308" y="-229.8" font-family="Times,serif" font-size="14.00" fill="#000000">structure</text>
</g>
<!-- CLICKERY&#45;&gt;structure -->
<g id="edge3" class="edge">
<title>CLICKERY&#45;&gt;structure</title>
<path fill="none" stroke="#000000" d="M485.3896,-290.9064C460.0081,-279.4848 425.0786,-263.7665 398.36,-251.7431"/>
<polygon fill="#000000" stroke="#000000" points="399.4762,-248.4074 388.9207,-247.4954 396.6036,-254.7909 399.4762,-248.4074"/>
</g>
<!-- main.py -->
<g id="node5" class="node">
<title>main.py</title>
<ellipse fill="none" stroke="#000000" cx="463.9308" cy="-234" rx="42.3375" ry="18"/>
<text text-anchor="middle" x="463.9308" y="-229.8" font-family="Times,serif" font-size="14.00" fill="#000000">main.py</text>
</g>
<!-- CLICKERY&#45;&gt;main.py -->
<g id="edge4" class="edge">
<title>CLICKERY&#45;&gt;main.py</title>
<path fill="none" stroke="#000000" d="M505.3353,-288.2022C498.6923,-279.506 490.5804,-268.8867 483.3029,-259.3598"/>
<polygon fill="#000000" stroke="#000000" points="486.032,-257.1667 477.1802,-251.3446 480.4692,-261.416 486.032,-257.1667"/>
</g>
<!-- LICENSE -->
<g id="node6" class="node">
<title>LICENSE</title>
<ellipse fill="none" stroke="#000000" cx="574.9308" cy="-234" rx="50.9599" ry="18"/>
<text text-anchor="middle" x="574.9308" y="-229.8" font-family="Times,serif" font-size="14.00" fill="#000000">LICENSE</text>
</g>
<!-- CLICKERY&#45;&gt;LICENSE -->
<g id="edge5" class="edge">
<title>CLICKERY&#45;&gt;LICENSE</title>
<path fill="none" stroke="#000000" d="M532.7735,-288.2022C539.4872,-279.5704 547.6744,-269.0439 555.0418,-259.5717"/>
<polygon fill="#000000" stroke="#000000" points="557.8706,-261.6354 561.2474,-251.593 552.3452,-257.3378 557.8706,-261.6354"/>
</g>
<!-- requirements.txt -->
<g id="node7" class="node">
<title>requirements.txt</title>
<ellipse fill="none" stroke="#000000" cx="717.9308" cy="-234" rx="74.1136" ry="18"/>
<text text-anchor="middle" x="717.9308" y="-229.8" font-family="Times,serif" font-size="14.00" fill="#000000">requirements.txt</text>
</g>
<!-- CLICKERY&#45;&gt;requirements.txt -->
<g id="edge6" class="edge">
<title>CLICKERY&#45;&gt;requirements.txt</title>
<path fill="none" stroke="#000000" d="M557.3,-292.1177C588.4473,-280.8483 632.6432,-264.8578 666.7945,-252.5016"/>
<polygon fill="#000000" stroke="#000000" points="668.3795,-255.6502 676.5922,-248.9567 665.9979,-249.0678 668.3795,-255.6502"/>
</g>
<!-- setup.py -->
<g id="node8" class="node">
<title>setup.py</title>
<ellipse fill="none" stroke="#000000" cx="853.9308" cy="-234" rx="43.4812" ry="18"/>
<text text-anchor="middle" x="853.9308" y="-229.8" font-family="Times,serif" font-size="14.00" fill="#000000">setup.py</text>
</g>
<!-- CLICKERY&#45;&gt;setup.py -->
<g id="edge7" class="edge">
<title>CLICKERY&#45;&gt;setup.py</title>
<path fill="none" stroke="#000000" d="M572.1756,-298.057C629.2439,-289.0216 722.2538,-272.7866 800.9308,-252 804.3219,-251.1041 807.8103,-250.103 811.3012,-249.0442"/>
<polygon fill="#000000" stroke="#000000" points="812.5932,-252.3063 821.0671,-245.9468 810.4769,-245.6338 812.5932,-252.3063"/>
</g>
<!-- sample -->
<g id="node9" class="node">
<title>sample</title>
<ellipse fill="none" stroke="#000000" cx="953.9308" cy="-234" rx="38.2799" ry="18"/>
<text text-anchor="middle" x="953.9308" y="-229.8" font-family="Times,serif" font-size="14.00" fill="#000000">sample</text>
</g>
<!-- CLICKERY&#45;&gt;sample -->
<g id="edge8" class="edge">
<title>CLICKERY&#45;&gt;sample</title>
<path fill="none" stroke="#000000" d="M576.7406,-301.9255C653.0631,-295.6434 791.195,-281.1387 905.9308,-252 909.0794,-251.2004 912.3059,-250.2629 915.5241,-249.243"/>
<polygon fill="#000000" stroke="#000000" points="916.7303,-252.5297 925.0676,-245.9921 914.4731,-245.9036 916.7303,-252.5297"/>
</g>
<!-- database -->
<g id="node10" class="node">
<title>database</title>
<ellipse fill="none" stroke="#000000" cx="60.9308" cy="-162" rx="44.0602" ry="18"/>
<text text-anchor="middle" x="60.9308" y="-157.8" font-family="Times,serif" font-size="14.00" fill="#000000">database</text>
</g>
<!-- assets&#45;&gt;database -->
<g id="edge9" class="edge">
<title>assets&#45;&gt;database</title>
<path fill="none" stroke="#000000" d="M230.6481,-222.7182C225.148,-220.4361 219.3679,-218.0955 213.9308,-216 177.4066,-201.9232 135.4529,-187.2175 104.726,-176.7135"/>
<polygon fill="#000000" stroke="#000000" points="105.7598,-173.3682 95.1653,-173.4568 103.5027,-179.9943 105.7598,-173.3682"/>
</g>
<!-- images -->
<g id="node11" class="node">
<title>images</title>
<ellipse fill="none" stroke="#000000" cx="172.9308" cy="-162" rx="38.2799" ry="18"/>
<text text-anchor="middle" x="172.9308" y="-157.8" font-family="Times,serif" font-size="14.00" fill="#000000">images</text>
</g>
<!-- assets&#45;&gt;images -->
<g id="edge10" class="edge">
<title>assets&#45;&gt;images</title>
<path fill="none" stroke="#000000" d="M239.1166,-218.7307C227.5509,-208.8172 212.2734,-195.7222 199.3107,-184.6114"/>
<polygon fill="#000000" stroke="#000000" points="201.4631,-181.8464 191.5927,-177.9959 196.9075,-187.1612 201.4631,-181.8464"/>
</g>
<!-- json -->
<g id="node12" class="node">
<title>json</title>
<ellipse fill="none" stroke="#000000" cx="256.9308" cy="-162" rx="27.2661" ry="18"/>
<text text-anchor="middle" x="256.9308" y="-157.8" font-family="Times,serif" font-size="14.00" fill="#000000">json</text>
</g>
<!-- assets&#45;&gt;json -->
<g id="edge11" class="edge">
<title>assets&#45;&gt;json</title>
<path fill="none" stroke="#000000" d="M256.9308,-215.8314C256.9308,-208.131 256.9308,-198.9743 256.9308,-190.4166"/>
<polygon fill="#000000" stroke="#000000" points="260.4309,-190.4132 256.9308,-180.4133 253.4309,-190.4133 260.4309,-190.4132"/>
</g>
<!-- graph.dot.svg -->
<g id="node37" class="node">
<title>graph.dot.svg</title>
<ellipse fill="none" stroke="#000000" cx="365.9308" cy="-162" rx="63.7103" ry="18"/>
<text text-anchor="middle" x="365.9308" y="-157.8" font-family="Times,serif" font-size="14.00" fill="#000000">graph.dot.svg</text>
</g>
<!-- structure&#45;&gt;graph.dot.svg -->
<g id="edge36" class="edge">
<title>structure&#45;&gt;graph.dot.svg</title>
<path fill="none" stroke="#000000" d="M360.6972,-215.8314C361.4459,-208.131 362.3361,-198.9743 363.1681,-190.4166"/>
<polygon fill="#000000" stroke="#000000" points="366.6565,-190.7051 364.1406,-180.4133 359.6893,-190.0276 366.6565,-190.7051"/>
</g>
<!-- structure.dot -->
<g id="node38" class="node">
<title>structure.dot</title>
<ellipse fill="none" stroke="#000000" cx="506.9308" cy="-162" rx="59.6486" ry="18"/>
<text text-anchor="middle" x="506.9308" y="-157.8" font-family="Times,serif" font-size="14.00" fill="#000000">structure.dot</text>
</g>
<!-- structure&#45;&gt;structure.dot -->
<g id="edge37" class="edge">
<title>structure&#45;&gt;structure.dot</title>
<path fill="none" stroke="#000000" d="M387.4667,-220.1177C409.8115,-209.2472 441.186,-193.984 466.1753,-181.827"/>
<polygon fill="#000000" stroke="#000000" points="467.9468,-184.8575 475.408,-177.3354 464.8845,-178.5628 467.9468,-184.8575"/>
</g>
<!-- pre_record -->
<g id="node16" class="node">
<title>pre_record</title>
<ellipse fill="none" stroke="#000000" cx="683.9308" cy="-162" rx="52.7103" ry="18"/>
<text text-anchor="middle" x="683.9308" y="-157.8" font-family="Times,serif" font-size="14.00" fill="#000000">pre_record</text>
</g>
<!-- sample&#45;&gt;pre_record -->
<g id="edge15" class="edge">
<title>sample&#45;&gt;pre_record</title>
<path fill="none" stroke="#000000" d="M924.4209,-222.2989C918.3515,-220.0721 911.97,-217.8595 905.9308,-216 849.8933,-198.746 784.5518,-183.4131 739.3349,-173.5356"/>
<polygon fill="#000000" stroke="#000000" points="739.9482,-170.0874 729.4337,-171.3897 738.4654,-176.9285 739.9482,-170.0874"/>
</g>
<!-- core.py -->
<g id="node17" class="node">
<title>core.py</title>
<ellipse fill="none" stroke="#000000" cx="856.9308" cy="-162" rx="39.9501" ry="18"/>
<text text-anchor="middle" x="856.9308" y="-157.8" font-family="Times,serif" font-size="14.00" fill="#000000">core.py</text>
</g>
<!-- sample&#45;&gt;core.py -->
<g id="edge16" class="edge">
<title>sample&#45;&gt;core.py</title>
<path fill="none" stroke="#000000" d="M933.3596,-218.7307C919.5643,-208.4908 901.1959,-194.8565 885.9239,-183.5206"/>
<polygon fill="#000000" stroke="#000000" points="887.9226,-180.6454 877.8068,-177.4956 883.7504,-186.2662 887.9226,-180.6454"/>
</g>
<!-- helpers -->
<g id="node18" class="node">
<title>helpers</title>
<ellipse fill="none" stroke="#000000" cx="953.9308" cy="-162" rx="38.842" ry="18"/>
<text text-anchor="middle" x="953.9308" y="-157.8" font-family="Times,serif" font-size="14.00" fill="#000000">helpers</text>
</g>
<!-- sample&#45;&gt;helpers -->
<g id="edge17" class="edge">
<title>sample&#45;&gt;helpers</title>
<path fill="none" stroke="#000000" d="M953.9308,-215.8314C953.9308,-208.131 953.9308,-198.9743 953.9308,-190.4166"/>
<polygon fill="#000000" stroke="#000000" points="957.4309,-190.4132 953.9308,-180.4133 950.4309,-190.4133 957.4309,-190.4132"/>
</g>
<!-- post_record -->
<g id="node19" class="node">
<title>post_record</title>
<ellipse fill="none" stroke="#000000" cx="1132.9308" cy="-162" rx="56.7426" ry="18"/>
<text text-anchor="middle" x="1132.9308" y="-157.8" font-family="Times,serif" font-size="14.00" fill="#000000">post_record</text>
</g>
<!-- sample&#45;&gt;post_record -->
<g id="edge18" class="edge">
<title>sample&#45;&gt;post_record</title>
<path fill="none" stroke="#000000" d="M983.0886,-222.2717C1011.5809,-210.8111 1055.3454,-193.2076 1088.2334,-179.9789"/>
<polygon fill="#000000" stroke="#000000" points="1089.6582,-183.1784 1097.6296,-176.1994 1087.0459,-176.684 1089.6582,-183.1784"/>
</g>
<!-- universal -->
<g id="node20" class="node">
<title>universal</title>
<ellipse fill="none" stroke="#000000" cx="1528.9308" cy="-162" rx="46.3662" ry="18"/>
<text text-anchor="middle" x="1528.9308" y="-157.8" font-family="Times,serif" font-size="14.00" fill="#000000">universal</text>
</g>
<!-- sample&#45;&gt;universal -->
<g id="edge19" class="edge">
<title>sample&#45;&gt;universal</title>
<path fill="none" stroke="#000000" d="M991.2151,-229.3314C1089.8967,-216.9747 1358.2548,-183.3716 1474.2776,-168.8435"/>
<polygon fill="#000000" stroke="#000000" points="1474.87,-172.2968 1484.3576,-167.5813 1474.0002,-165.351 1474.87,-172.2968"/>
</g>
<!-- history.db -->
<g id="node13" class="node">
<title>history.db</title>
<ellipse fill="none" stroke="#000000" cx="49.9308" cy="-90" rx="49.8617" ry="18"/>
<text text-anchor="middle" x="49.9308" y="-85.8" font-family="Times,serif" font-size="14.00" fill="#000000">history.db</text>
</g>
<!-- database&#45;&gt;history.db -->
<g id="edge12" class="edge">
<title>database&#45;&gt;history.db</title>
<path fill="none" stroke="#000000" d="M58.1551,-143.8314C56.9786,-136.131 55.5797,-126.9743 54.2722,-118.4166"/>
<polygon fill="#000000" stroke="#000000" points="57.7141,-117.7699 52.744,-108.4133 50.7944,-118.8272 57.7141,-117.7699"/>
</g>
<!-- images.png -->
<g id="node14" class="node">
<title>images.png</title>
<ellipse fill="none" stroke="#000000" cx="172.9308" cy="-90" rx="55.0797" ry="18"/>
<text text-anchor="middle" x="172.9308" y="-85.8" font-family="Times,serif" font-size="14.00" fill="#000000">images.png</text>
</g>
<!-- images&#45;&gt;images.png -->
<g id="edge13" class="edge">
<title>images&#45;&gt;images.png</title>
<path fill="none" stroke="#000000" d="M172.9308,-143.8314C172.9308,-136.131 172.9308,-126.9743 172.9308,-118.4166"/>
<polygon fill="#000000" stroke="#000000" points="176.4309,-118.4132 172.9308,-108.4133 169.4309,-118.4133 176.4309,-118.4132"/>
</g>
<!-- history.json -->
<g id="node15" class="node">
<title>history.json</title>
<ellipse fill="none" stroke="#000000" cx="302.9308" cy="-90" rx="56.2404" ry="18"/>
<text text-anchor="middle" x="302.9308" y="-85.8" font-family="Times,serif" font-size="14.00" fill="#000000">history.json</text>
</g>
<!-- json&#45;&gt;history.json -->
<g id="edge14" class="edge">
<title>json&#45;&gt;history.json</title>
<path fill="none" stroke="#000000" d="M267.5998,-145.3008C273.0862,-136.7133 279.9018,-126.0454 286.0789,-116.377"/>
<polygon fill="#000000" stroke="#000000" points="289.0812,-118.1785 291.5157,-107.8671 283.1823,-114.4097 289.0812,-118.1785"/>
</g>
<!-- file_input.py -->
<g id="node26" class="node">
<title>file_input.py</title>
<ellipse fill="none" stroke="#000000" cx="454.9308" cy="-90" rx="60.8159" ry="18"/>
<text text-anchor="middle" x="454.9308" y="-85.8" font-family="Times,serif" font-size="14.00" fill="#000000">file_input.py</text>
</g>
<!-- pre_record&#45;&gt;file_input.py -->
<g id="edge25" class="edge">
<title>pre_record&#45;&gt;file_input.py</title>
<path fill="none" stroke="#000000" d="M645.0841,-149.7862C606.9261,-137.7889 548.4783,-119.4123 506.4563,-106.2001"/>
<polygon fill="#000000" stroke="#000000" points="507.2748,-102.7886 496.6854,-103.1281 505.1752,-109.4663 507.2748,-102.7886"/>
</g>
<!-- operations -->
<g id="node27" class="node">
<title>operations</title>
<ellipse fill="none" stroke="#000000" cx="584.9308" cy="-90" rx="51.0242" ry="18"/>
<text text-anchor="middle" x="584.9308" y="-85.8" font-family="Times,serif" font-size="14.00" fill="#000000">operations</text>
</g>
<!-- pre_record&#45;&gt;operations -->
<g id="edge26" class="edge">
<title>pre_record&#45;&gt;operations</title>
<path fill="none" stroke="#000000" d="M661.4662,-145.6621C647.9224,-135.812 630.4833,-123.1291 615.6733,-112.3582"/>
<polygon fill="#000000" stroke="#000000" points="617.4525,-109.3244 607.3065,-106.2733 613.3353,-114.9856 617.4525,-109.3244"/>
</g>
<!-- manual_input.py -->
<g id="node28" class="node">
<title>manual_input.py</title>
<ellipse fill="none" stroke="#000000" cx="729.9308" cy="-90" rx="76.4308" ry="18"/>
<text text-anchor="middle" x="729.9308" y="-85.8" font-family="Times,serif" font-size="14.00" fill="#000000">manual_input.py</text>
</g>
<!-- pre_record&#45;&gt;manual_input.py -->
<g id="edge27" class="edge">
<title>pre_record&#45;&gt;manual_input.py</title>
<path fill="none" stroke="#000000" d="M695.3016,-144.2022C700.6647,-135.8079 707.1725,-125.6218 713.0924,-116.3558"/>
<polygon fill="#000000" stroke="#000000" points="716.0969,-118.1539 718.5314,-107.8425 710.198,-114.3851 716.0969,-118.1539"/>
</g>
<!-- dir.py -->
<g id="node21" class="node">
<title>dir.py</title>
<ellipse fill="none" stroke="#000000" cx="857.9308" cy="-90" rx="33.6701" ry="18"/>
<text text-anchor="middle" x="857.9308" y="-85.8" font-family="Times,serif" font-size="14.00" fill="#000000">dir.py</text>
</g>
<!-- helpers&#45;&gt;dir.py -->
<g id="edge20" class="edge">
<title>helpers&#45;&gt;dir.py</title>
<path fill="none" stroke="#000000" d="M933.1002,-146.3771C919.2347,-135.9779 900.8591,-122.1962 885.747,-110.8622"/>
<polygon fill="#000000" stroke="#000000" points="887.8366,-108.0544 877.7366,-104.8543 883.6366,-113.6544 887.8366,-108.0544"/>
</g>
<!-- menu.py -->
<g id="node22" class="node">
<title>menu.py</title>
<ellipse fill="none" stroke="#000000" cx="953.9308" cy="-90" rx="44.6271" ry="18"/>
<text text-anchor="middle" x="953.9308" y="-85.8" font-family="Times,serif" font-size="14.00" fill="#000000">menu.py</text>
</g>
<!-- helpers&#45;&gt;menu.py -->
<g id="edge21" class="edge">
<title>helpers&#45;&gt;menu.py</title>
<path fill="none" stroke="#000000" d="M953.9308,-143.8314C953.9308,-136.131 953.9308,-126.9743 953.9308,-118.4166"/>
<polygon fill="#000000" stroke="#000000" points="957.4309,-118.4132 953.9308,-108.4133 950.4309,-118.4133 957.4309,-118.4132"/>
</g>
<!-- looper.py -->
<g id="node23" class="node">
<title>looper.py</title>
<ellipse fill="none" stroke="#000000" cx="1063.9308" cy="-90" rx="47.5576" ry="18"/>
<text text-anchor="middle" x="1063.9308" y="-85.8" font-family="Times,serif" font-size="14.00" fill="#000000">looper.py</text>
</g>
<!-- post_record&#45;&gt;looper.py -->
<g id="edge22" class="edge">
<title>post_record&#45;&gt;looper.py</title>
<path fill="none" stroke="#000000" d="M1116.2278,-144.5708C1107.5829,-135.55 1096.885,-124.387 1087.4216,-114.5121"/>
<polygon fill="#000000" stroke="#000000" points="1089.926,-112.0669 1080.48,-107.2687 1084.8721,-116.9103 1089.926,-112.0669"/>
</g>
<!-- post_record.py -->
<g id="node24" class="node">
<title>post_record.py</title>
<ellipse fill="none" stroke="#000000" cx="1197.9308" cy="-90" rx="68.8852" ry="18"/>
<text text-anchor="middle" x="1197.9308" y="-85.8" font-family="Times,serif" font-size="14.00" fill="#000000">post_record.py</text>
</g>
<!-- post_record&#45;&gt;post_record.py -->
<g id="edge23" class="edge">
<title>post_record&#45;&gt;post_record.py</title>
<path fill="none" stroke="#000000" d="M1148.6655,-144.5708C1156.6701,-135.7041 1166.5432,-124.7678 1175.3439,-115.0194"/>
<polygon fill="#000000" stroke="#000000" points="1178.0126,-117.2863 1182.1157,-107.5182 1172.8167,-112.5956 1178.0126,-117.2863"/>
</g>
<!-- replacer.py -->
<g id="node25" class="node">
<title>replacer.py</title>
<ellipse fill="none" stroke="#000000" cx="1338.9308" cy="-90" rx="54.3933" ry="18"/>
<text text-anchor="middle" x="1338.9308" y="-85.8" font-family="Times,serif" font-size="14.00" fill="#000000">replacer.py</text>
</g>
<!-- post_record&#45;&gt;replacer.py -->
<g id="edge24" class="edge">
<title>post_record&#45;&gt;replacer.py</title>
<path fill="none" stroke="#000000" d="M1171.1951,-148.6261C1205.3743,-136.68 1255.5472,-119.1438 1292.111,-106.3642"/>
<polygon fill="#000000" stroke="#000000" points="1293.2809,-109.663 1301.5661,-103.0595 1290.9712,-103.055 1293.2809,-109.663"/>
</g>
<!-- actions.json -->
<g id="node34" class="node">
<title>actions.json</title>
<ellipse fill="none" stroke="#000000" cx="1467.9308" cy="-90" rx="56.8006" ry="18"/>
<text text-anchor="middle" x="1467.9308" y="-85.8" font-family="Times,serif" font-size="14.00" fill="#000000">actions.json</text>
</g>
<!-- universal&#45;&gt;actions.json -->
<g id="edge33" class="edge">
<title>universal&#45;&gt;actions.json</title>
<path fill="none" stroke="#000000" d="M1514.1644,-144.5708C1506.7268,-135.7919 1497.5702,-124.9841 1489.3734,-115.3093"/>
<polygon fill="#000000" stroke="#000000" points="1491.9073,-112.8856 1482.7727,-107.5182 1486.5664,-117.4106 1491.9073,-112.8856"/>
</g>
<!-- config.py -->
<g id="node35" class="node">
<title>config.py</title>
<ellipse fill="none" stroke="#000000" cx="1590.9308" cy="-90" rx="47.5576" ry="18"/>
<text text-anchor="middle" x="1590.9308" y="-85.8" font-family="Times,serif" font-size="14.00" fill="#000000">config.py</text>
</g>
<!-- universal&#45;&gt;config.py -->
<g id="edge34" class="edge">
<title>universal&#45;&gt;config.py</title>
<path fill="none" stroke="#000000" d="M1543.9393,-144.5708C1551.5549,-135.7269 1560.9436,-124.8239 1569.3217,-115.0945"/>
<polygon fill="#000000" stroke="#000000" points="1572.1875,-117.1302 1576.0606,-107.2687 1566.8831,-112.5626 1572.1875,-117.1302"/>
</g>
<!-- replace.json -->
<g id="node36" class="node">
<title>replace.json</title>
<ellipse fill="none" stroke="#000000" cx="1713.9308" cy="-90" rx="57.3416" ry="18"/>
<text text-anchor="middle" x="1713.9308" y="-85.8" font-family="Times,serif" font-size="14.00" fill="#000000">replace.json</text>
</g>
<!-- universal&#45;&gt;replace.json -->
<g id="edge35" class="edge">
<title>universal&#45;&gt;replace.json</title>
<path fill="none" stroke="#000000" d="M1562.0051,-149.1278C1591.6128,-137.6049 1635.3068,-120.5996 1668.2457,-107.7802"/>
<polygon fill="#000000" stroke="#000000" points="1669.6121,-111.0042 1677.6618,-104.1155 1667.0732,-104.4808 1669.6121,-111.0042"/>
</g>
<!-- general.py -->
<g id="node29" class="node">
<title>general.py</title>
<ellipse fill="none" stroke="#000000" cx="272.9308" cy="-18" rx="51.5465" ry="18"/>
<text text-anchor="middle" x="272.9308" y="-13.8" font-family="Times,serif" font-size="14.00" fill="#000000">general.py</text>
</g>
<!-- operations&#45;&gt;general.py -->
<g id="edge28" class="edge">
<title>operations&#45;&gt;general.py</title>
<path fill="none" stroke="#000000" d="M546.6867,-77.8671C539.4952,-75.7737 532.0112,-73.7207 524.9308,-72 440.566,-51.4973 417.2956,-56.5027 332.9308,-36 329.0587,-35.059 325.0659,-34.0186 321.0663,-32.9266"/>
<polygon fill="#000000" stroke="#000000" points="321.7498,-29.4828 311.175,-30.1329 319.8471,-36.2193 321.7498,-29.4828"/>
</g>
<!-- hot_key_insert.py -->
<g id="node30" class="node">
<title>hot_key_insert.py</title>
<ellipse fill="none" stroke="#000000" cx="422.9308" cy="-18" rx="80.5036" ry="18"/>
<text text-anchor="middle" x="422.9308" y="-13.8" font-family="Times,serif" font-size="14.00" fill="#000000">hot_key_insert.py</text>
</g>
<!-- operations&#45;&gt;hot_key_insert.py -->
<g id="edge29" class="edge">
<title>operations&#45;&gt;hot_key_insert.py</title>
<path fill="none" stroke="#000000" d="M552.9248,-75.7751C528.8392,-65.0704 495.4957,-50.2511 468.6091,-38.3015"/>
<polygon fill="#000000" stroke="#000000" points="469.9537,-35.069 459.394,-34.2059 467.1107,-41.4657 469.9537,-35.069"/>
</g>
<!-- key_insert.py -->
<g id="node31" class="node">
<title>key_insert.py</title>
<ellipse fill="none" stroke="#000000" cx="584.9308" cy="-18" rx="63.1659" ry="18"/>
<text text-anchor="middle" x="584.9308" y="-13.8" font-family="Times,serif" font-size="14.00" fill="#000000">key_insert.py</text>
</g>
<!-- operations&#45;&gt;key_insert.py -->
<g id="edge30" class="edge">
<title>operations&#45;&gt;key_insert.py</title>
<path fill="none" stroke="#000000" d="M584.9308,-71.8314C584.9308,-64.131 584.9308,-54.9743 584.9308,-46.4166"/>
<polygon fill="#000000" stroke="#000000" points="588.4309,-46.4132 584.9308,-36.4133 581.4309,-46.4133 588.4309,-46.4132"/>
</g>
<!-- text_input.py -->
<g id="node32" class="node">
<title>text_input.py</title>
<ellipse fill="none" stroke="#000000" cx="728.9308" cy="-18" rx="62.0437" ry="18"/>
<text text-anchor="middle" x="728.9308" y="-13.8" font-family="Times,serif" font-size="14.00" fill="#000000">text_input.py</text>
</g>
<!-- operations&#45;&gt;text_input.py -->
<g id="edge31" class="edge">
<title>operations&#45;&gt;text_input.py</title>
<path fill="none" stroke="#000000" d="M614.4189,-75.256C635.8479,-64.5415 665.1044,-49.9132 688.6812,-38.1248"/>
<polygon fill="#000000" stroke="#000000" points="690.3593,-41.1989 697.7383,-33.5962 687.2288,-34.9379 690.3593,-41.1989"/>
</g>
<!-- wait_seconds.py -->
<g id="node33" class="node">
<title>wait_seconds.py</title>
<ellipse fill="none" stroke="#000000" cx="883.9308" cy="-18" rx="75.2634" ry="18"/>
<text text-anchor="middle" x="883.9308" y="-13.8" font-family="Times,serif" font-size="14.00" fill="#000000">wait_seconds.py</text>
</g>
<!-- operations&#45;&gt;wait_seconds.py -->
<g id="edge32" class="edge">
<title>operations&#45;&gt;wait_seconds.py</title>
<path fill="none" stroke="#000000" d="M623.5507,-77.9853C630.6378,-75.9028 637.9885,-73.8233 644.9308,-72 677.1153,-63.5473 759.2236,-45.2581 818.2156,-32.312"/>
<polygon fill="#000000" stroke="#000000" points="819.189,-35.6819 828.2077,-30.1218 817.6902,-28.8442 819.189,-35.6819"/>
</g>
</g>
</svg>
