<?xml version="1.0" encoding="UTF-8" standalone="no"?>
<!DOCTYPE svg PUBLIC "-//W3C//DTD SVG 1.1//EN"
 "http://www.w3.org/Graphics/SVG/1.1/DTD/svg11.dtd">
<!-- Generated by graphviz version 2.40.1 (20161225.0304)
 -->
<!-- Title: UNIVERSE Pages: 1 -->
<svg width="1974pt" height="332pt"
 viewBox="0.00 0.00 1973.67 332.00" xmlns="http://www.w3.org/2000/svg" xmlns:xlink="http://www.w3.org/1999/xlink">
<g id="graph0" class="graph" transform="scale(1 1) rotate(0) translate(4 328)">
<title>UNIVERSE</title>
<polygon fill="#ffffff" stroke="transparent" points="-4,4 -4,-328 1969.6679,-328 1969.6679,4 -4,4"/>
<!-- CLICKERY -->
<g id="node1" class="node">
<title>CLICKERY</title>
<ellipse fill="none" stroke="#000000" cx="658.2472" cy="-306" rx="59.1276" ry="18"/>
<text text-anchor="middle" x="658.2472" y="-301.8" font-family="Times,serif" font-size="14.00" fill="#000000">CLICKERY</text>
</g>
<!-- Guide -->
<g id="node2" class="node">
<title>Guide</title>
<ellipse fill="none" stroke="#000000" cx="164.2472" cy="-234" rx="34.7709" ry="18"/>
<text text-anchor="middle" x="164.2472" y="-229.8" font-family="Times,serif" font-size="14.00" fill="#000000">Guide</text>
</g>
<!-- CLICKERY&#45;&gt;Guide -->
<g id="edge1" class="edge">
<title>CLICKERY&#45;&gt;Guide</title>
<path fill="none" stroke="#000000" d="M604.4401,-298.1577C505.838,-283.7865 298.0329,-253.4991 207.7047,-240.3339"/>
<polygon fill="#000000" stroke="#000000" points="208.1978,-236.8689 197.7975,-238.8899 207.1881,-243.7957 208.1978,-236.8689"/>
</g>
<!-- reset.py -->
<g id="node3" class="node">
<title>reset.py</title>
<ellipse fill="none" stroke="#000000" cx="364.2472" cy="-234" rx="41.171" ry="18"/>
<text text-anchor="middle" x="364.2472" y="-229.8" font-family="Times,serif" font-size="14.00" fill="#000000">reset.py</text>
</g>
<!-- CLICKERY&#45;&gt;reset.py -->
<g id="edge2" class="edge">
<title>CLICKERY&#45;&gt;reset.py</title>
<path fill="none" stroke="#000000" d="M607.3018,-296.6955C557.607,-287.1585 480.0957,-271.0547 414.2472,-252 411.2852,-251.1429 408.2444,-250.2028 405.1959,-249.216"/>
<polygon fill="#000000" stroke="#000000" points="406.1137,-245.8318 395.5195,-245.9494 403.8747,-252.4641 406.1137,-245.8318"/>
</g>
<!-- assets -->
<g id="node4" class="node">
<title>assets</title>
<ellipse fill="none" stroke="#000000" cx="457.2472" cy="-234" rx="33.6208" ry="18"/>
<text text-anchor="middle" x="457.2472" y="-229.8" font-family="Times,serif" font-size="14.00" fill="#000000">assets</text>
</g>
<!-- CLICKERY&#45;&gt;assets -->
<g id="edge3" class="edge">
<title>CLICKERY&#45;&gt;assets</title>
<path fill="none" stroke="#000000" d="M617.0864,-292.9908C584.8,-282.5537 538.8527,-267.1862 499.2472,-252 497.1407,-251.1923 494.984,-250.342 492.8142,-249.4684"/>
<polygon fill="#000000" stroke="#000000" points="493.9109,-246.1346 483.3322,-245.5499 491.2374,-252.6039 493.9109,-246.1346"/>
</g>
<!-- structure -->
<g id="node5" class="node">
<title>structure</title>
<ellipse fill="none" stroke="#000000" cx="553.2472" cy="-234" rx="44.6395" ry="18"/>
<text text-anchor="middle" x="553.2472" y="-229.8" font-family="Times,serif" font-size="14.00" fill="#000000">structure</text>
</g>
<!-- CLICKERY&#45;&gt;structure -->
<g id="edge4" class="edge">
<title>CLICKERY&#45;&gt;structure</title>
<path fill="none" stroke="#000000" d="M634.158,-289.4817C619.4453,-279.393 600.4727,-266.3832 584.5978,-255.4976"/>
<polygon fill="#000000" stroke="#000000" points="586.3706,-252.4694 576.1439,-249.7006 582.4118,-258.2425 586.3706,-252.4694"/>
</g>
<!-- main.py -->
<g id="node6" class="node">
<title>main.py</title>
<ellipse fill="none" stroke="#000000" cx="658.2472" cy="-234" rx="42.3375" ry="18"/>
<text text-anchor="middle" x="658.2472" y="-229.8" font-family="Times,serif" font-size="14.00" fill="#000000">main.py</text>
</g>
<!-- CLICKERY&#45;&gt;main.py -->
<g id="edge5" class="edge">
<title>CLICKERY&#45;&gt;main.py</title>
<path fill="none" stroke="#000000" d="M658.2472,-287.8314C658.2472,-280.131 658.2472,-270.9743 658.2472,-262.4166"/>
<polygon fill="#000000" stroke="#000000" points="661.7473,-262.4132 658.2472,-252.4133 654.7473,-262.4133 661.7473,-262.4132"/>
</g>
<!-- LICENSE -->
<g id="node7" class="node">
<title>LICENSE</title>
<ellipse fill="none" stroke="#000000" cx="769.2472" cy="-234" rx="50.9599" ry="18"/>
<text text-anchor="middle" x="769.2472" y="-229.8" font-family="Times,serif" font-size="14.00" fill="#000000">LICENSE</text>
</g>
<!-- CLICKERY&#45;&gt;LICENSE -->
<g id="edge6" class="edge">
<title>CLICKERY&#45;&gt;LICENSE</title>
<path fill="none" stroke="#000000" d="M683.4348,-289.6621C699.013,-279.5573 719.1875,-266.4711 736.0607,-255.5263"/>
<polygon fill="#000000" stroke="#000000" points="738.0566,-258.4036 744.5416,-250.0252 734.2473,-252.5308 738.0566,-258.4036"/>
</g>
<!-- requirements.txt -->
<g id="node8" class="node">
<title>requirements.txt</title>
<ellipse fill="none" stroke="#000000" cx="912.2472" cy="-234" rx="74.1136" ry="18"/>
<text text-anchor="middle" x="912.2472" y="-229.8" font-family="Times,serif" font-size="14.00" fill="#000000">requirements.txt</text>
</g>
<!-- CLICKERY&#45;&gt;requirements.txt -->
<g id="edge7" class="edge">
<title>CLICKERY&#45;&gt;requirements.txt</title>
<path fill="none" stroke="#000000" d="M701.6227,-293.7046C743.6881,-281.7805 807.7876,-263.6106 854.2248,-250.4473"/>
<polygon fill="#000000" stroke="#000000" points="855.1852,-253.813 863.8516,-247.7184 853.2761,-247.0784 855.1852,-253.813"/>
</g>
<!-- setup.py -->
<g id="node9" class="node">
<title>setup.py</title>
<ellipse fill="none" stroke="#000000" cx="1048.2472" cy="-234" rx="43.4812" ry="18"/>
<text text-anchor="middle" x="1048.2472" y="-229.8" font-family="Times,serif" font-size="14.00" fill="#000000">setup.py</text>
</g>
<!-- CLICKERY&#45;&gt;setup.py -->
<g id="edge8" class="edge">
<title>CLICKERY&#45;&gt;setup.py</title>
<path fill="none" stroke="#000000" d="M714.2843,-299.9527C781.6349,-292.0134 897.767,-276.1801 995.2472,-252 998.8047,-251.1176 1002.4645,-250.1044 1006.1191,-249.0182"/>
<polygon fill="#000000" stroke="#000000" points="1007.2126,-252.3434 1015.7075,-246.0119 1005.1184,-245.664 1007.2126,-252.3434"/>
</g>
<!-- sample -->
<g id="node10" class="node">
<title>sample</title>
<ellipse fill="none" stroke="#000000" cx="1148.2472" cy="-234" rx="38.2799" ry="18"/>
<text text-anchor="middle" x="1148.2472" y="-229.8" font-family="Times,serif" font-size="14.00" fill="#000000">sample</text>
</g>
<!-- CLICKERY&#45;&gt;sample -->
<g id="edge9" class="edge">
<title>CLICKERY&#45;&gt;sample</title>
<path fill="none" stroke="#000000" d="M716.9597,-303.2583C802.3877,-298.276 965.4646,-285.0078 1100.2472,-252 1103.4024,-251.2273 1106.6337,-250.309 1109.8552,-249.3024"/>
<polygon fill="#000000" stroke="#000000" points="1111.0518,-252.5925 1119.4045,-246.0746 1108.8102,-245.9611 1111.0518,-252.5925"/>
</g>
<!-- guide.md -->
<g id="node11" class="node">
<title>guide.md</title>
<ellipse fill="none" stroke="#000000" cx="47.2472" cy="-162" rx="47.4956" ry="18"/>
<text text-anchor="middle" x="47.2472" y="-157.8" font-family="Times,serif" font-size="14.00" fill="#000000">guide.md</text>
</g>
<!-- Guide&#45;&gt;guide.md -->
<g id="edge10" class="edge">
<title>Guide&#45;&gt;guide.md</title>
<path fill="none" stroke="#000000" d="M141.6884,-220.1177C124.413,-209.4867 100.3103,-194.6542 80.7786,-182.6348"/>
<polygon fill="#000000" stroke="#000000" points="82.5182,-179.5957 72.1672,-177.3354 78.8495,-185.5573 82.5182,-179.5957"/>
</g>
<!-- format.md -->
<g id="node12" class="node">
<title>format.md</title>
<ellipse fill="none" stroke="#000000" cx="164.2472" cy="-162" rx="51.5639" ry="18"/>
<text text-anchor="middle" x="164.2472" y="-157.8" font-family="Times,serif" font-size="14.00" fill="#000000">format.md</text>
</g>
<!-- Guide&#45;&gt;format.md -->
<g id="edge11" class="edge">
<title>Guide&#45;&gt;format.md</title>
<path fill="none" stroke="#000000" d="M164.2472,-215.8314C164.2472,-208.131 164.2472,-198.9743 164.2472,-190.4166"/>
<polygon fill="#000000" stroke="#000000" points="167.7473,-190.4132 164.2472,-180.4133 160.7473,-190.4133 167.7473,-190.4132"/>
</g>
<!-- database -->
<g id="node13" class="node">
<title>database</title>
<ellipse fill="none" stroke="#000000" cx="278.2472" cy="-162" rx="44.0602" ry="18"/>
<text text-anchor="middle" x="278.2472" y="-157.8" font-family="Times,serif" font-size="14.00" fill="#000000">database</text>
</g>
<!-- assets&#45;&gt;database -->
<g id="edge12" class="edge">
<title>assets&#45;&gt;database</title>
<path fill="none" stroke="#000000" d="M430.4415,-222.6892C425.0848,-220.4543 419.4928,-218.1391 414.2472,-216 382.6117,-203.0993 346.6822,-188.8504 319.7008,-178.23"/>
<polygon fill="#000000" stroke="#000000" points="320.7769,-174.8924 310.1896,-174.4907 318.2156,-181.407 320.7769,-174.8924"/>
</g>
<!-- images -->
<g id="node14" class="node">
<title>images</title>
<ellipse fill="none" stroke="#000000" cx="379.2472" cy="-162" rx="38.2799" ry="18"/>
<text text-anchor="middle" x="379.2472" y="-157.8" font-family="Times,serif" font-size="14.00" fill="#000000">images</text>
</g>
<!-- assets&#45;&gt;images -->
<g id="edge13" class="edge">
<title>assets&#45;&gt;images</title>
<path fill="none" stroke="#000000" d="M440.3223,-218.3771C429.737,-208.606 415.9166,-195.8487 404.1004,-184.9415"/>
<polygon fill="#000000" stroke="#000000" points="406.4011,-182.302 396.679,-178.091 401.6531,-187.4456 406.4011,-182.302"/>
</g>
<!-- json -->
<g id="node15" class="node">
<title>json</title>
<ellipse fill="none" stroke="#000000" cx="463.2472" cy="-162" rx="27.2661" ry="18"/>
<text text-anchor="middle" x="463.2472" y="-157.8" font-family="Times,serif" font-size="14.00" fill="#000000">json</text>
</g>
<!-- assets&#45;&gt;json -->
<g id="edge14" class="edge">
<title>assets&#45;&gt;json</title>
<path fill="none" stroke="#000000" d="M458.7612,-215.8314C459.4029,-208.131 460.166,-198.9743 460.8791,-190.4166"/>
<polygon fill="#000000" stroke="#000000" points="464.3701,-190.6694 461.7127,-180.4133 457.3943,-190.088 464.3701,-190.6694"/>
</g>
<!-- graph.dot.svg -->
<g id="node40" class="node">
<title>graph.dot.svg</title>
<ellipse fill="none" stroke="#000000" cx="572.2472" cy="-162" rx="63.7103" ry="18"/>
<text text-anchor="middle" x="572.2472" y="-157.8" font-family="Times,serif" font-size="14.00" fill="#000000">graph.dot.svg</text>
</g>
<!-- structure&#45;&gt;graph.dot.svg -->
<g id="edge39" class="edge">
<title>structure&#45;&gt;graph.dot.svg</title>
<path fill="none" stroke="#000000" d="M558.0417,-215.8314C560.096,-208.0463 562.5432,-198.7729 564.8227,-190.1347"/>
<polygon fill="#000000" stroke="#000000" points="568.2206,-190.9753 567.3881,-180.4133 561.4523,-189.1892 568.2206,-190.9753"/>
</g>
<!-- structure.dot -->
<g id="node41" class="node">
<title>structure.dot</title>
<ellipse fill="none" stroke="#000000" cx="713.2472" cy="-162" rx="59.6486" ry="18"/>
<text text-anchor="middle" x="713.2472" y="-157.8" font-family="Times,serif" font-size="14.00" fill="#000000">structure.dot</text>
</g>
<!-- structure&#45;&gt;structure.dot -->
<g id="edge40" class="edge">
<title>structure&#45;&gt;structure.dot</title>
<path fill="none" stroke="#000000" d="M583.3419,-220.4574C607.9587,-209.3798 643.072,-193.5788 670.5876,-181.1968"/>
<polygon fill="#000000" stroke="#000000" points="672.2907,-184.2685 679.9736,-176.9731 669.4181,-177.8851 672.2907,-184.2685"/>
</g>
<!-- pre_record -->
<g id="node19" class="node">
<title>pre_record</title>
<ellipse fill="none" stroke="#000000" cx="884.2472" cy="-162" rx="52.7103" ry="18"/>
<text text-anchor="middle" x="884.2472" y="-157.8" font-family="Times,serif" font-size="14.00" fill="#000000">pre_record</text>
</g>
<!-- sample&#45;&gt;pre_record -->
<g id="edge18" class="edge">
<title>sample&#45;&gt;pre_record</title>
<path fill="none" stroke="#000000" d="M1118.7279,-222.329C1112.6592,-220.0999 1106.2804,-217.8787 1100.2472,-216 1046.1493,-199.1544 983.1862,-183.8957 939.2463,-173.9296"/>
<polygon fill="#000000" stroke="#000000" points="939.8622,-170.4808 929.3376,-171.6988 938.3247,-177.3098 939.8622,-170.4808"/>
</g>
<!-- core.py -->
<g id="node20" class="node">
<title>core.py</title>
<ellipse fill="none" stroke="#000000" cx="1051.2472" cy="-162" rx="39.9501" ry="18"/>
<text text-anchor="middle" x="1051.2472" y="-157.8" font-family="Times,serif" font-size="14.00" fill="#000000">core.py</text>
</g>
<!-- sample&#45;&gt;core.py -->
<g id="edge19" class="edge">
<title>sample&#45;&gt;core.py</title>
<path fill="none" stroke="#000000" d="M1127.6759,-218.7307C1113.8806,-208.4908 1095.5122,-194.8565 1080.2403,-183.5206"/>
<polygon fill="#000000" stroke="#000000" points="1082.2389,-180.6454 1072.1231,-177.4956 1078.0668,-186.2662 1082.2389,-180.6454"/>
</g>
<!-- helpers -->
<g id="node21" class="node">
<title>helpers</title>
<ellipse fill="none" stroke="#000000" cx="1148.2472" cy="-162" rx="38.842" ry="18"/>
<text text-anchor="middle" x="1148.2472" y="-157.8" font-family="Times,serif" font-size="14.00" fill="#000000">helpers</text>
</g>
<!-- sample&#45;&gt;helpers -->
<g id="edge20" class="edge">
<title>sample&#45;&gt;helpers</title>
<path fill="none" stroke="#000000" d="M1148.2472,-215.8314C1148.2472,-208.131 1148.2472,-198.9743 1148.2472,-190.4166"/>
<polygon fill="#000000" stroke="#000000" points="1151.7473,-190.4132 1148.2472,-180.4133 1144.7473,-190.4133 1151.7473,-190.4132"/>
</g>
<!-- post_record -->
<g id="node22" class="node">
<title>post_record</title>
<ellipse fill="none" stroke="#000000" cx="1327.2472" cy="-162" rx="56.7426" ry="18"/>
<text text-anchor="middle" x="1327.2472" y="-157.8" font-family="Times,serif" font-size="14.00" fill="#000000">post_record</text>
</g>
<!-- sample&#45;&gt;post_record -->
<g id="edge21" class="edge">
<title>sample&#45;&gt;post_record</title>
<path fill="none" stroke="#000000" d="M1177.405,-222.2717C1205.8973,-210.8111 1249.6617,-193.2076 1282.5497,-179.9789"/>
<polygon fill="#000000" stroke="#000000" points="1283.9745,-183.1784 1291.946,-176.1994 1281.3622,-176.684 1283.9745,-183.1784"/>
</g>
<!-- universal -->
<g id="node23" class="node">
<title>universal</title>
<ellipse fill="none" stroke="#000000" cx="1723.2472" cy="-162" rx="46.3662" ry="18"/>
<text text-anchor="middle" x="1723.2472" y="-157.8" font-family="Times,serif" font-size="14.00" fill="#000000">universal</text>
</g>
<!-- sample&#45;&gt;universal -->
<g id="edge22" class="edge">
<title>sample&#45;&gt;universal</title>
<path fill="none" stroke="#000000" d="M1185.5315,-229.3314C1284.213,-216.9747 1552.5711,-183.3716 1668.594,-168.8435"/>
<polygon fill="#000000" stroke="#000000" points="1669.1863,-172.2968 1678.6739,-167.5813 1668.3165,-165.351 1669.1863,-172.2968"/>
</g>
<!-- history.db -->
<g id="node16" class="node">
<title>history.db</title>
<ellipse fill="none" stroke="#000000" cx="256.2472" cy="-90" rx="49.8617" ry="18"/>
<text text-anchor="middle" x="256.2472" y="-85.8" font-family="Times,serif" font-size="14.00" fill="#000000">history.db</text>
</g>
<!-- database&#45;&gt;history.db -->
<g id="edge15" class="edge">
<title>database&#45;&gt;history.db</title>
<path fill="none" stroke="#000000" d="M272.6956,-143.8314C270.2803,-135.9266 267.396,-126.4872 264.7222,-117.7365"/>
<polygon fill="#000000" stroke="#000000" points="267.9902,-116.4541 261.7207,-107.9134 261.2957,-118.4997 267.9902,-116.4541"/>
</g>
<!-- images.png -->
<g id="node17" class="node">
<title>images.png</title>
<ellipse fill="none" stroke="#000000" cx="379.2472" cy="-90" rx="55.0797" ry="18"/>
<text text-anchor="middle" x="379.2472" y="-85.8" font-family="Times,serif" font-size="14.00" fill="#000000">images.png</text>
</g>
<!-- images&#45;&gt;images.png -->
<g id="edge16" class="edge">
<title>images&#45;&gt;images.png</title>
<path fill="none" stroke="#000000" d="M379.2472,-143.8314C379.2472,-136.131 379.2472,-126.9743 379.2472,-118.4166"/>
<polygon fill="#000000" stroke="#000000" points="382.7473,-118.4132 379.2472,-108.4133 375.7473,-118.4133 382.7473,-118.4132"/>
</g>
<!-- history.json -->
<g id="node18" class="node">
<title>history.json</title>
<ellipse fill="none" stroke="#000000" cx="509.2472" cy="-90" rx="56.2404" ry="18"/>
<text text-anchor="middle" x="509.2472" y="-85.8" font-family="Times,serif" font-size="14.00" fill="#000000">history.json</text>
</g>
<!-- json&#45;&gt;history.json -->
<g id="edge17" class="edge">
<title>json&#45;&gt;history.json</title>
<path fill="none" stroke="#000000" d="M473.9161,-145.3008C479.4026,-136.7133 486.2181,-126.0454 492.3952,-116.377"/>
<polygon fill="#000000" stroke="#000000" points="495.3976,-118.1785 497.832,-107.8671 489.4987,-114.4097 495.3976,-118.1785"/>
</g>
<!-- file_input.py -->
<g id="node29" class="node">
<title>file_input.py</title>
<ellipse fill="none" stroke="#000000" cx="649.2472" cy="-90" rx="60.8159" ry="18"/>
<text text-anchor="middle" x="649.2472" y="-85.8" font-family="Times,serif" font-size="14.00" fill="#000000">file_input.py</text>
</g>
<!-- pre_record&#45;&gt;file_input.py -->
<g id="edge28" class="edge">
<title>pre_record&#45;&gt;file_input.py</title>
<path fill="none" stroke="#000000" d="M844.9134,-149.9488C805.5172,-137.8785 744.6651,-119.2344 701.29,-105.945"/>
<polygon fill="#000000" stroke="#000000" points="702.0771,-102.5257 691.4905,-102.9426 700.0265,-109.2186 702.0771,-102.5257"/>
</g>
<!-- operations -->
<g id="node30" class="node">
<title>operations</title>
<ellipse fill="none" stroke="#000000" cx="779.2472" cy="-90" rx="51.0242" ry="18"/>
<text text-anchor="middle" x="779.2472" y="-85.8" font-family="Times,serif" font-size="14.00" fill="#000000">operations</text>
</g>
<!-- pre_record&#45;&gt;operations -->
<g id="edge29" class="edge">
<title>pre_record&#45;&gt;operations</title>
<path fill="none" stroke="#000000" d="M860.6831,-145.8418C846.0924,-135.8368 827.1654,-122.8582 811.2308,-111.9316"/>
<polygon fill="#000000" stroke="#000000" points="812.9592,-108.873 802.7326,-106.1043 809.0005,-114.6462 812.9592,-108.873"/>
</g>
<!-- manual_input.py -->
<g id="node31" class="node">
<title>manual_input.py</title>
<ellipse fill="none" stroke="#000000" cx="924.2472" cy="-90" rx="76.4308" ry="18"/>
<text text-anchor="middle" x="924.2472" y="-85.8" font-family="Times,serif" font-size="14.00" fill="#000000">manual_input.py</text>
</g>
<!-- pre_record&#45;&gt;manual_input.py -->
<g id="edge30" class="edge">
<title>pre_record&#45;&gt;manual_input.py</title>
<path fill="none" stroke="#000000" d="M894.1348,-144.2022C898.7155,-135.9569 904.2567,-125.9828 909.3304,-116.8501"/>
<polygon fill="#000000" stroke="#000000" points="912.3985,-118.5345 914.1954,-108.0931 906.2794,-115.1349 912.3985,-118.5345"/>
</g>
<!-- dir.py -->
<g id="node24" class="node">
<title>dir.py</title>
<ellipse fill="none" stroke="#000000" cx="1052.2472" cy="-90" rx="33.6701" ry="18"/>
<text text-anchor="middle" x="1052.2472" y="-85.8" font-family="Times,serif" font-size="14.00" fill="#000000">dir.py</text>
</g>
<!-- helpers&#45;&gt;dir.py -->
<g id="edge23" class="edge">
<title>helpers&#45;&gt;dir.py</title>
<path fill="none" stroke="#000000" d="M1127.4166,-146.3771C1113.551,-135.9779 1095.1754,-122.1962 1080.0634,-110.8622"/>
<polygon fill="#000000" stroke="#000000" points="1082.1529,-108.0544 1072.0529,-104.8543 1077.9529,-113.6544 1082.1529,-108.0544"/>
</g>
<!-- menu.py -->
<g id="node25" class="node">
<title>menu.py</title>
<ellipse fill="none" stroke="#000000" cx="1148.2472" cy="-90" rx="44.6271" ry="18"/>
<text text-anchor="middle" x="1148.2472" y="-85.8" font-family="Times,serif" font-size="14.00" fill="#000000">menu.py</text>
</g>
<!-- helpers&#45;&gt;menu.py -->
<g id="edge24" class="edge">
<title>helpers&#45;&gt;menu.py</title>
<path fill="none" stroke="#000000" d="M1148.2472,-143.8314C1148.2472,-136.131 1148.2472,-126.9743 1148.2472,-118.4166"/>
<polygon fill="#000000" stroke="#000000" points="1151.7473,-118.4132 1148.2472,-108.4133 1144.7473,-118.4133 1151.7473,-118.4132"/>
</g>
<!-- looper.py -->
<g id="node26" class="node">
<title>looper.py</title>
<ellipse fill="none" stroke="#000000" cx="1258.2472" cy="-90" rx="47.5576" ry="18"/>
<text text-anchor="middle" x="1258.2472" y="-85.8" font-family="Times,serif" font-size="14.00" fill="#000000">looper.py</text>
</g>
<!-- post_record&#45;&gt;looper.py -->
<g id="edge25" class="edge">
<title>post_record&#45;&gt;looper.py</title>
<path fill="none" stroke="#000000" d="M1310.5442,-144.5708C1301.8993,-135.55 1291.2013,-124.387 1281.7379,-114.5121"/>
<polygon fill="#000000" stroke="#000000" points="1284.2424,-112.0669 1274.7963,-107.2687 1279.1884,-116.9103 1284.2424,-112.0669"/>
</g>
<!-- post_record.py -->
<g id="node27" class="node">
<title>post_record.py</title>
<ellipse fill="none" stroke="#000000" cx="1392.2472" cy="-90" rx="68.8852" ry="18"/>
<text text-anchor="middle" x="1392.2472" y="-85.8" font-family="Times,serif" font-size="14.00" fill="#000000">post_record.py</text>
</g>
<!-- post_record&#45;&gt;post_record.py -->
<g id="edge26" class="edge">
<title>post_record&#45;&gt;post_record.py</title>
<path fill="none" stroke="#000000" d="M1342.9818,-144.5708C1350.9865,-135.7041 1360.8596,-124.7678 1369.6602,-115.0194"/>
<polygon fill="#000000" stroke="#000000" points="1372.329,-117.2863 1376.4321,-107.5182 1367.1331,-112.5956 1372.329,-117.2863"/>
</g>
<!-- replacer.py -->
<g id="node28" class="node">
<title>replacer.py</title>
<ellipse fill="none" stroke="#000000" cx="1533.2472" cy="-90" rx="54.3933" ry="18"/>
<text text-anchor="middle" x="1533.2472" y="-85.8" font-family="Times,serif" font-size="14.00" fill="#000000">replacer.py</text>
</g>
<!-- post_record&#45;&gt;replacer.py -->
<g id="edge27" class="edge">
<title>post_record&#45;&gt;replacer.py</title>
<path fill="none" stroke="#000000" d="M1365.5114,-148.6261C1399.6906,-136.68 1449.8635,-119.1438 1486.4273,-106.3642"/>
<polygon fill="#000000" stroke="#000000" points="1487.5972,-109.663 1495.8824,-103.0595 1485.2876,-103.055 1487.5972,-109.663"/>
</g>
<!-- actions.json -->
<g id="node37" class="node">
<title>actions.json</title>
<ellipse fill="none" stroke="#000000" cx="1662.2472" cy="-90" rx="56.8006" ry="18"/>
<text text-anchor="middle" x="1662.2472" y="-85.8" font-family="Times,serif" font-size="14.00" fill="#000000">actions.json</text>
</g>
<!-- universal&#45;&gt;actions.json -->
<g id="edge36" class="edge">
<title>universal&#45;&gt;actions.json</title>
<path fill="none" stroke="#000000" d="M1708.4808,-144.5708C1701.0431,-135.7919 1691.8865,-124.9841 1683.6897,-115.3093"/>
<polygon fill="#000000" stroke="#000000" points="1686.2237,-112.8856 1677.089,-107.5182 1680.8827,-117.4106 1686.2237,-112.8856"/>
</g>
<!-- config.py -->
<g id="node38" class="node">
<title>config.py</title>
<ellipse fill="none" stroke="#000000" cx="1785.2472" cy="-90" rx="47.5576" ry="18"/>
<text text-anchor="middle" x="1785.2472" y="-85.8" font-family="Times,serif" font-size="14.00" fill="#000000">config.py</text>
</g>
<!-- universal&#45;&gt;config.py -->
<g id="edge37" class="edge">
<title>universal&#45;&gt;config.py</title>
<path fill="none" stroke="#000000" d="M1738.2556,-144.5708C1745.8712,-135.7269 1755.2599,-124.8239 1763.638,-115.0945"/>
<polygon fill="#000000" stroke="#000000" points="1766.5038,-117.1302 1770.3769,-107.2687 1761.1994,-112.5626 1766.5038,-117.1302"/>
</g>
<!-- replace.json -->
<g id="node39" class="node">
<title>replace.json</title>
<ellipse fill="none" stroke="#000000" cx="1908.2472" cy="-90" rx="57.3416" ry="18"/>
<text text-anchor="middle" x="1908.2472" y="-85.8" font-family="Times,serif" font-size="14.00" fill="#000000">replace.json</text>
</g>
<!-- universal&#45;&gt;replace.json -->
<g id="edge38" class="edge">
<title>universal&#45;&gt;replace.json</title>
<path fill="none" stroke="#000000" d="M1756.3214,-149.1278C1785.9291,-137.6049 1829.6231,-120.5996 1862.562,-107.7802"/>
<polygon fill="#000000" stroke="#000000" points="1863.9284,-111.0042 1871.9781,-104.1155 1861.3896,-104.4808 1863.9284,-111.0042"/>
</g>
<!-- general.py -->
<g id="node32" class="node">
<title>general.py</title>
<ellipse fill="none" stroke="#000000" cx="467.2472" cy="-18" rx="51.5465" ry="18"/>
<text text-anchor="middle" x="467.2472" y="-13.8" font-family="Times,serif" font-size="14.00" fill="#000000">general.py</text>
</g>
<!-- operations&#45;&gt;general.py -->
<g id="edge31" class="edge">
<title>operations&#45;&gt;general.py</title>
<path fill="none" stroke="#000000" d="M741.003,-77.8671C733.8116,-75.7737 726.3275,-73.7207 719.2472,-72 634.8824,-51.4973 611.6119,-56.5027 527.2472,-36 523.3751,-35.059 519.3823,-34.0186 515.3826,-32.9266"/>
<polygon fill="#000000" stroke="#000000" points="516.0662,-29.4828 505.4913,-30.1329 514.1635,-36.2193 516.0662,-29.4828"/>
</g>
<!-- hot_key_insert.py -->
<g id="node33" class="node">
<title>hot_key_insert.py</title>
<ellipse fill="none" stroke="#000000" cx="617.2472" cy="-18" rx="80.5036" ry="18"/>
<text text-anchor="middle" x="617.2472" y="-13.8" font-family="Times,serif" font-size="14.00" fill="#000000">hot_key_insert.py</text>
</g>
<!-- operations&#45;&gt;hot_key_insert.py -->
<g id="edge32" class="edge">
<title>operations&#45;&gt;hot_key_insert.py</title>
<path fill="none" stroke="#000000" d="M747.2412,-75.7751C723.1555,-65.0704 689.8121,-50.2511 662.9255,-38.3015"/>
<polygon fill="#000000" stroke="#000000" points="664.27,-35.069 653.7104,-34.2059 661.427,-41.4657 664.27,-35.069"/>
</g>
<!-- key_insert.py -->
<g id="node34" class="node">
<title>key_insert.py</title>
<ellipse fill="none" stroke="#000000" cx="779.2472" cy="-18" rx="63.1659" ry="18"/>
<text text-anchor="middle" x="779.2472" y="-13.8" font-family="Times,serif" font-size="14.00" fill="#000000">key_insert.py</text>
</g>
<!-- operations&#45;&gt;key_insert.py -->
<g id="edge33" class="edge">
<title>operations&#45;&gt;key_insert.py</title>
<path fill="none" stroke="#000000" d="M779.2472,-71.8314C779.2472,-64.131 779.2472,-54.9743 779.2472,-46.4166"/>
<polygon fill="#000000" stroke="#000000" points="782.7473,-46.4132 779.2472,-36.4133 775.7473,-46.4133 782.7473,-46.4132"/>
</g>
<!-- text_input.py -->
<g id="node35" class="node">
<title>text_input.py</title>
<ellipse fill="none" stroke="#000000" cx="923.2472" cy="-18" rx="62.0437" ry="18"/>
<text text-anchor="middle" x="923.2472" y="-13.8" font-family="Times,serif" font-size="14.00" fill="#000000">text_input.py</text>
</g>
<!-- operations&#45;&gt;text_input.py -->
<g id="edge34" class="edge">
<title>operations&#45;&gt;text_input.py</title>
<path fill="none" stroke="#000000" d="M808.7352,-75.256C830.1642,-64.5415 859.4207,-49.9132 882.9975,-38.1248"/>
<polygon fill="#000000" stroke="#000000" points="884.6756,-41.1989 892.0547,-33.5962 881.5451,-34.9379 884.6756,-41.1989"/>
</g>
<!-- wait_seconds.py -->
<g id="node36" class="node">
<title>wait_seconds.py</title>
<ellipse fill="none" stroke="#000000" cx="1078.2472" cy="-18" rx="75.2634" ry="18"/>
<text text-anchor="middle" x="1078.2472" y="-13.8" font-family="Times,serif" font-size="14.00" fill="#000000">wait_seconds.py</text>
</g>
<!-- operations&#45;&gt;wait_seconds.py -->
<g id="edge35" class="edge">
<title>operations&#45;&gt;wait_seconds.py</title>
<path fill="none" stroke="#000000" d="M817.8671,-77.9853C824.9542,-75.9028 832.3049,-73.8233 839.2472,-72 871.4316,-63.5473 953.5399,-45.2581 1012.532,-32.312"/>
<polygon fill="#000000" stroke="#000000" points="1013.5054,-35.6819 1022.524,-30.1218 1012.0065,-28.8442 1013.5054,-35.6819"/>
</g>
</g>
</svg>
